<svg id="Component_5_2" data-name="Component 5 – 2" xmlns="http://www.w3.org/2000/svg" width="38.794" height="15.432" viewBox="0 0 38.794 15.432">
  <path id="Path_23" data-name="Path 23" d="M262.434,1756.669l7.89-15.427,7.888,15.427c-1.2,0-2.294.019-3.388-.02-.167-.006-.383-.247-.478-.429-1.227-2.358-2.435-4.726-3.65-7.09-.108-.21-.231-.414-.383-.684-.7,1.36-1.376,2.662-2.047,3.964s-1.336,2.616-2.023,3.914a.646.646,0,0,1-.427.33C264.721,1756.682,263.626,1756.669,262.434,1756.669Z" transform="translate(-262.434 -1741.242)" fill="#fff"/>
  <path id="Path_24" data-name="Path 24" d="M550.4,1768.484v10.5h-2.5V1766.4h6.866v2.08Z" transform="translate(-516.002 -1763.592)" fill="#fff"/>
  <path id="Path_25" data-name="Path 25" d="M488.284,1766.39v12.585h-2.465v-10.468h-4.286v-2.117Z" transform="translate(-457.048 -1763.58)" fill="#fff"/>
  <path id="Path_26" data-name="Path 26" d="M419.873,1757h-2.436V1741.63h2.436Z" transform="translate(-400.115 -1741.587)" fill="#fff"/>
  <path id="Path_27" data-name="Path 27" d="M445.439,1741.618h2.447v15.339h-2.447Z" transform="translate(-424.988 -1741.576)" fill="#fff"/>
  <path id="Path_28" data-name="Path 28" d="M495.8,1741.7v2.052H481.484V1741.7Z" transform="translate(-457.005 -1741.647)" fill="#fff"/>
</svg>
