<svg xmlns="http://www.w3.org/2000/svg" width="29.548" height="20.267" viewBox="0 0 29.548 20.267">
  <path id="Path_284" data-name="Path 284" d="M-346.339,512.673q-6.789,0-13.578,0c-1.157,0-1.193-.037-1.193-1.184q0-8.949,0-17.9c0-1.1.055-1.166,1.131-1.167q13.622,0,27.244,0c1.074,0,1.158.086,1.158,1.155,0,6-.011,11.991.014,17.986,0,.831-.251,1.13-1.11,1.124C-337.228,512.654-341.783,512.673-346.339,512.673Zm-.008-7.207L-333.8,493.7H-359Zm12.548,5.92-8.466-8.03c-1.157,1.077-2.271,2.076-3.337,3.124a.892.892,0,0,1-1.482.014c-1.085-1.061-2.219-2.071-3.374-3.14l-8.432,8.032Zm.935-.832V494.538l-8.493,7.961Zm-18.5-8.055-8.453-7.844v15.895Z" transform="translate(361.111 -492.422)" fill="#dcdbdb"/>
</svg>
