<svg xmlns="http://www.w3.org/2000/svg" width="29.549" height="29.588" viewBox="0 0 29.549 29.588">
  <g id="Group_56" data-name="Group 56" transform="translate(-805 -481)">
    <path id="Path_246" data-name="Path 246" d="M834.549,495.774c-.152.77-.24,1.559-.466,2.306-1.622,5.374-5.325,8.564-10.658,9.947a15.339,15.339,0,0,1-8-.164,1.146,1.146,0,0,0-.866.167,15.744,15.744,0,0,1-4.961,2.558c.063-.243.112-.414.15-.587.295-1.341.615-2.678.854-4.029a1.065,1.065,0,0,0-.4-.791,13.509,13.509,0,0,1-4.861-7.61c-.137-.594-.227-1.2-.339-1.8v-2.111c.114-.6.2-1.2.347-1.792,1.375-5.306,4.846-8.587,9.98-10.2a31.209,31.209,0,0,1,3.26-.67h2.374c.772.133,1.556.217,2.313.408,5.208,1.314,8.912,4.341,10.665,9.518a25.1,25.1,0,0,1,.61,2.738Zm-23.792,13.852c1.2-.767,2.318-1.443,3.387-2.2a1.477,1.477,0,0,1,1.437-.273,14.207,14.207,0,0,0,10.679-.859c4.467-2.218,7.187-5.785,7.57-10.837a11.917,11.917,0,0,0-3.669-9.521,14.8,14.8,0,0,0-20.8.028,12.041,12.041,0,0,0-3.539,10.576,12.441,12.441,0,0,0,4.981,8.228,1.152,1.152,0,0,1,.5,1.186C811.138,507.1,810.966,508.243,810.757,509.626Z" transform="translate(0)" fill="#dcdbdb"/>
    <path id="Path_247" data-name="Path 247" d="M903.146,566.914A2.1,2.1,0,0,1,905.235,569a2.108,2.108,0,1,1-4.215-.038A2.1,2.1,0,0,1,903.146,566.914Z" transform="translate(-83.353 -74.581)" fill="#dcdbdb"/>
    <path id="Path_248" data-name="Path 248" d="M951.924,568.932a2.033,2.033,0,0,1,2.133-2.01,2.061,2.061,0,0,1,2.042,2.117,2.126,2.126,0,0,1-2.121,2.068A2.075,2.075,0,0,1,951.924,568.932Z" transform="translate(-127.543 -74.587)" fill="#dcdbdb"/>
    <path id="Path_249" data-name="Path 249" d="M852.507,566.919a2.033,2.033,0,0,1,2.082,2.064,2.07,2.07,0,0,1-2.041,2.121,2.13,2.13,0,0,1-2.137-2.12A2.063,2.063,0,0,1,852.507,566.919Z" transform="translate(-39.42 -74.585)" fill="#dcdbdb"/>
  </g>
</svg>
