<svg xmlns="http://www.w3.org/2000/svg" width="29.135" height="27.084" viewBox="0 0 29.135 27.084">
  <g id="Group_66" data-name="Group 66" transform="translate(264.81 -642.498)">
    <path id="Path_288" data-name="Path 288" d="M-247.407,686.877c0-.837-.014-1.483,0-2.127.026-1,.663-1.548,1.762-1.555,1.186-.007,1.794.51,1.817,1.566.014.644,0,1.289,0,1.978h3.676c0-.586,0-1.164,0-1.743.006-1.243.547-1.8,1.766-1.808a1.578,1.578,0,0,1,1.82,1.764c.006.561,0,1.123,0,1.833a2.972,2.972,0,0,1,.882.015c.486.167,1.113.295,1.382.66,1.919,2.605,3.812,5.289,4.6,8.455a22.442,22.442,0,0,1,.293,5.642c-.014,1-.839,1.473-2.072,1.473l-13.7,0c-2.461,0-4.922,0-7.383-.006-1.428-.006-1.94-.657-2.1-2.056-.424-3.687.821-6.874,2.724-9.9.536-.853,1.057-1.715,1.571-2.581C-249.73,687.416-249.04,686.449-247.407,686.877Zm5.46,14.361a5.415,5.415,0,0,0,5.4-5.431,5.433,5.433,0,0,0-5.507-5.428,5.441,5.441,0,0,0-5.36,5.393A5.417,5.417,0,0,0-241.947,701.239Z" transform="translate(-8.275 -33.448)" fill="#dcdbdb"/>
    <path id="Path_289" data-name="Path 289" d="M-250.3,642.508a22.254,22.254,0,0,1,8.795,1.4,14.441,14.441,0,0,1,4.711,3.272c1.015,1.026,1.507,3.976.759,5.171a2.385,2.385,0,0,1-1.562.933,23.208,23.208,0,0,1-3.55.03,1.625,1.625,0,0,1-1.737-1.559,5.657,5.657,0,0,0-5.068-5.417,11.2,11.2,0,0,0-5.96.386,5.031,5.031,0,0,0-3.586,4.7,1.814,1.814,0,0,1-1.926,1.9c-1.125.038-2.253.036-3.377,0-1.227-.042-1.819-.757-1.959-1.969a5.662,5.662,0,0,1,2.48-5.5c3.059-2.384,6.568-3.139,10.293-3.338C-251.428,642.483-250.864,642.508-250.3,642.508Z" transform="translate(0 0)" fill="#dcdbdb"/>
    <path id="Path_290" data-name="Path 290" d="M-199.784,733.917a3.639,3.639,0,0,1,3.647,3.6,3.676,3.676,0,0,1-3.562,3.606,3.648,3.648,0,0,1-3.686-3.567A3.619,3.619,0,0,1-199.784,733.917Z" transform="translate(-50.492 -75.148)" fill="#dcdbdb"/>
  </g>
</svg>
