<svg id="linkedin" xmlns="http://www.w3.org/2000/svg" width="22.981" height="21.968" viewBox="0 0 22.981 21.968">
  <path id="linkedin-2" data-name="linkedin" d="M5.217,21.968V7.146H.29V21.968ZM2.754,5.121A2.569,2.569,0,1,0,2.787,0a2.568,2.568,0,1,0-.064,5.121h.032ZM7.943,21.968H12.87V13.691a3.372,3.372,0,0,1,.162-1.2,2.7,2.7,0,0,1,2.528-1.8c1.783,0,2.5,1.359,2.5,3.352v7.929h4.926v-8.5c0-4.553-2.431-6.671-5.672-6.671a4.906,4.906,0,0,0-4.472,2.5h.033V7.146H7.944c.064,1.391,0,14.822,0,14.822Z" fill="#4d4d84"/>
</svg>
