<svg xmlns="http://www.w3.org/2000/svg" width="28.668" height="29.006" viewBox="0 0 28.668 29.006">
  <path id="Path_284" data-name="Path 284" d="M766.162,428.006H751V399h28.668v29.006h-8.792q.01-5.09.021-10.179c0-1.139-.079-.975,1-.983.884-.007,1.768,0,2.678,0,.2-1.606.391-3.116.593-4.722H770.9c0-1.081-.011-2.085,0-3.088a1.413,1.413,0,0,1,1.476-1.489c.785-.011,1.571-.017,2.356,0,.391.01.518-.144.512-.53-.018-1.074-.026-2.148,0-3.221.013-.476-.188-.579-.605-.573-1.146.019-2.3-.043-3.438.018a4.845,4.845,0,0,0-4.536,3.071,8.865,8.865,0,0,0-.484,2.685c-.079,1.018-.018,2.047-.018,3.13-1.115,0-2.151.006-3.186,0-.355,0-.556.093-.551.506q.022,1.868,0,3.737c0,.367.138.488.489.481.849-.016,1.7.032,2.547-.017.582-.033.715.195.711.739C766.158,421.047,766.165,424.526,766.162,428.006Z" transform="translate(-751 -399)" fill="#dcdbdb"/>
</svg>
