<svg xmlns="http://www.w3.org/2000/svg" width="41.46" height="41.403" viewBox="0 0 41.46 41.403">
  <path id="Path_294" data-name="Path 294" d="M355.326,2238.465a6.178,6.178,0,0,1-.977-.449c-1.174-.8-2.333-1.633-3.486-2.467a.557.557,0,0,0-.658-.063,14.762,14.762,0,0,1-1.57.642.558.558,0,0,0-.424.51c-.22,1.375-.462,2.746-.691,4.119a1.6,1.6,0,0,1-1.757,1.5q-2.251,0-4.5-.018a1.613,1.613,0,0,1-1.732-1.486c-.234-1.388-.48-2.774-.7-4.164a.564.564,0,0,0-.431-.5c-.545-.2-1.084-.421-1.608-.67a.541.541,0,0,0-.624.054c-1.14.8-2.289,1.588-3.436,2.379a1.624,1.624,0,0,1-2.343-.2q-1.554-1.565-3.1-3.135a1.612,1.612,0,0,1-.173-2.342c.8-1.118,1.607-2.238,2.426-3.346a.566.566,0,0,0,.059-.663c-.244-.526-.459-1.067-.658-1.613a.538.538,0,0,0-.478-.4c-1.342-.227-2.679-.484-4.02-.724a1.644,1.644,0,0,1-1.572-1.887q.008-2.182.023-4.364a1.608,1.608,0,0,1,1.517-1.746c1.344-.217,2.688-.438,4.034-.641a.629.629,0,0,0,.576-.478,14.566,14.566,0,0,1,.657-1.563.571.571,0,0,0-.056-.665c-.8-1.125-1.575-2.261-2.355-3.4a1.6,1.6,0,0,1,.213-2.3q1.577-1.574,3.17-3.131a1.6,1.6,0,0,1,2.309-.16c1.108.793,2.218,1.583,3.311,2.4a.622.622,0,0,0,.741.061,16.012,16.012,0,0,1,1.616-.651.487.487,0,0,0,.374-.442c.227-1.311.481-2.618.713-3.928a1.689,1.689,0,0,1,1.994-1.665q2.136.012,4.272.027a1.588,1.588,0,0,1,1.742,1.462c.233,1.388.463,2.777.676,4.168a.531.531,0,0,0,.4.478c.558.209,1.093.479,1.653.681a.712.712,0,0,0,.562-.058c1.136-.779,2.253-1.586,3.379-2.381a1.636,1.636,0,0,1,2.381.194q1.553,1.565,3.1,3.138a1.608,1.608,0,0,1,.177,2.307c-.806,1.136-1.609,2.275-2.427,3.4a.57.57,0,0,0-.067.662,16.708,16.708,0,0,1,.656,1.613.533.533,0,0,0,.483.4c1.329.218,2.655.451,3.983.668a1.679,1.679,0,0,1,1.658,1.955q-.009,2.09-.023,4.18a1.653,1.653,0,0,1-1.588,1.879c-1.357.232-2.712.477-4.072.687a.6.6,0,0,0-.536.46c-.191.515-.4,1.024-.644,1.519a.561.561,0,0,0,.062.661c.818,1.127,1.62,2.267,2.424,3.4a1.607,1.607,0,0,1-.2,2.338c-1.055,1.046-2.117,2.084-3.169,3.132A2.156,2.156,0,0,1,355.326,2238.465Zm-5.4-16.812a6.395,6.395,0,1,0-6.414,6.364A6.389,6.389,0,0,0,349.924,2221.653Z" transform="translate(-322.869 -2200.857)" fill="#313132"/>
</svg>
