<svg xmlns="http://www.w3.org/2000/svg" width="21.896" height="21.896" viewBox="0 0 21.896 21.896">
  <g id="scale" transform="translate(-5.625 -5.625)">
    <path id="Path_9" data-name="Path 9" d="M13.587,19.125H7.616a1.991,1.991,0,0,0-1.991,1.991v5.972a1.991,1.991,0,0,0,1.991,1.991h5.972a1.991,1.991,0,0,0,1.991-1.991V21.116A1.991,1.991,0,0,0,13.587,19.125ZM7.616,27.087V21.116h5.972v5.972Z" transform="translate(0 -1.556)" fill="#fff"/>
    <path id="Path_10" data-name="Path 10" d="M20.078,21.55V23.54H26.05A1.991,1.991,0,0,0,28.04,21.55V7.616A1.991,1.991,0,0,0,26.05,5.625H12.116a1.991,1.991,0,0,0-1.991,1.991v5.972h1.991V7.616H26.05V21.55" transform="translate(-0.519)" fill="#fff"/>
  </g>
</svg>
