<svg xmlns="http://www.w3.org/2000/svg" width="25.613" height="25.613" viewBox="0 0 25.613 25.613">
  <g id="support" transform="translate(-2.999 -3)">
    <path id="Path_11" data-name="Path 11" d="M16.139,28.608q-.333.008-.666,0A12.8,12.8,0,0,1,6.724,6.778l.054-.054a12.793,12.793,0,0,1,18.065.008l.038.038A12.8,12.8,0,0,1,16.14,28.609Zm2.269-8.388L22.089,23.9a10.25,10.25,0,0,1-12.566,0L13.2,20.219a5.131,5.131,0,0,0,5.2,0Zm-7.015-1.813L7.713,22.089a10.25,10.25,0,0,1,0-12.566L11.393,13.2a5.131,5.131,0,0,0,0,5.2Zm1.957-1.874a2.574,2.574,0,0,1-.018-1.392,2.556,2.556,0,1,1,.018,1.392Zm5.059-5.141a5.131,5.131,0,0,0-5.2,0L9.523,7.713a10.25,10.25,0,0,1,12.566,0l-3.681,3.681Zm5.491,10.7a10.25,10.25,0,0,0,0-12.566L20.219,13.2a5.131,5.131,0,0,1,0,5.2L23.9,22.088Z" transform="translate(0 0)" fill="#fff" fill-rule="evenodd"/>
  </g>
</svg>
