<svg xmlns="http://www.w3.org/2000/svg" width="26.498" height="26.213" viewBox="0 0 26.498 26.213">
  <path id="technorati" d="M18.269,14.595a13.673,13.673,0,0,1-5.007-.893,9.068,9.068,0,0,1-3.623-2.419A4.957,4.957,0,0,1,8.306,7.958,5,5,0,0,1,9.639,4.619,8.9,8.9,0,0,1,13.262,2.2a13.861,13.861,0,0,1,5.007-.88q.724,0,1.579.077a13.317,13.317,0,0,1,4.567,4.309A12.992,12.992,0,0,1,26.5,11.7a9.9,9.9,0,0,1-3.545,2.109A13.625,13.625,0,0,1,18.269,14.595Zm-13.3-6.65a7.915,7.915,0,0,0,1.786,4.994,12.159,12.159,0,0,0,4.787,3.6L9.963,21.245l8.306-3.338a15.93,15.93,0,0,0,7.944-1.993A13.012,13.012,0,0,1,21.568,23.3a12.84,12.84,0,0,1-8.293,2.911,13,13,0,0,1-5.149-1.048,13.049,13.049,0,0,1-7.077-7.077A13.017,13.017,0,0,1,0,12.938,12.841,12.841,0,0,1,2.911,4.645,13,13,0,0,1,10.273,0,11.44,11.44,0,0,0,6.392,3.481,7.775,7.775,0,0,0,4.968,7.944Z" fill="#fff"/>
</svg>
