<svg id="twitter-bird" xmlns="http://www.w3.org/2000/svg" width="23.048" height="18.723" viewBox="0 0 23.048 18.723">
  <path id="twitter-bird-2" data-name="twitter-bird" d="M23.048,2.218a9.575,9.575,0,0,1-2.362,2.442q.014.271.014.612a13.582,13.582,0,0,1-2.242,7.435,14.366,14.366,0,0,1-2.707,3.079,12.067,12.067,0,0,1-3.776,2.139,13.792,13.792,0,0,1-4.727.8A13.161,13.161,0,0,1,0,16.6a10.225,10.225,0,0,0,1.128.065A9.271,9.271,0,0,0,7,14.638a4.588,4.588,0,0,1-2.746-.944,4.647,4.647,0,0,1-1.669-2.34,4.727,4.727,0,0,0,2.135-.079A4.609,4.609,0,0,1,2.007,9.645,4.575,4.575,0,0,1,.929,6.64V6.582a4.667,4.667,0,0,0,2.142.592A4.7,4.7,0,0,1,1.535,5.489,4.614,4.614,0,0,1,.967,3.24,4.646,4.646,0,0,1,1.606.864a13.463,13.463,0,0,0,4.311,3.49,13.14,13.14,0,0,0,5.433,1.451,4.624,4.624,0,0,1-.124-1.076,4.555,4.555,0,0,1,1.385-3.343,4.73,4.73,0,0,1,6.795.106,9.418,9.418,0,0,0,3-1.149A4.571,4.571,0,0,1,20.332,2.96,9.45,9.45,0,0,0,23.048,2.218Z" fill="#4d4d84"/>
</svg>
